<svg width="24" height="30" viewBox="0 0 24 30" fill="none" xmlns="http://www.w3.org/2000/svg">
<path d="M5.71429 11.8889V7.22222C5.71429 3.78444 8.52714 1 12 1C15.4729 1 18.2857 3.78444 18.2857 7.22222V11.8889M12 19.6667C12.4168 19.6667 12.8165 19.5028 13.1112 19.2111C13.4059 18.9193 13.5714 18.5237 13.5714 18.1111C13.5714 17.6986 13.4059 17.3029 13.1112 17.0112C12.8165 16.7194 12.4168 16.5556 12 16.5556C11.5832 16.5556 11.1835 16.7194 10.8888 17.0112C10.5941 17.3029 10.4286 17.6986 10.4286 18.1111C10.4286 18.5237 10.5941 18.9193 10.8888 19.2111C11.1835 19.5028 11.5832 19.6667 12 19.6667ZM12 19.6667V24.3333M3.51429 11.8889H20.4857C21.8686 11.8889 23 13.0089 23 14.3778V25.2667C23 27.32 21.3029 29 19.2286 29H4.77143C2.69714 29 1 27.32 1 25.2667V14.3778C1 13.0089 2.13143 11.8889 3.51429 11.8889Z" stroke="#252525" stroke-width="1.5" stroke-miterlimit="10" stroke-linecap="round" stroke-linejoin="round"/>
</svg>
